<svg width="61" height="57" viewBox="0 0 61 57" fill="none" xmlns="http://www.w3.org/2000/svg">
<path d="M7.625 26.125V29.25C7.625 31.1356 7.625 32.0784 8.21079 32.6642C8.79657 33.25 9.73938 33.25 11.625 33.25H18.9233C19.6047 33.25 19.9454 33.25 20.2045 33.4327C20.4637 33.6154 20.5781 33.9363 20.8071 34.578L22.4013 39.047C22.6302 39.6887 22.7447 40.0096 23.0038 40.1923C23.2629 40.375 23.6036 40.375 24.285 40.375H36.715C37.3964 40.375 37.7371 40.375 37.9962 40.1923C38.2553 40.0096 38.3698 39.6887 38.5987 39.047L40.1929 34.578C40.4219 33.9363 40.5363 33.6154 40.7955 33.4327C41.0546 33.25 41.3953 33.25 42.0767 33.25H49.375C51.2606 33.25 52.2034 33.25 52.7892 32.6642C53.375 32.0784 53.375 31.1356 53.375 29.25V26.125" stroke="#7392B7" stroke-width="2"/>
<path d="M20.3334 21.375L30.5 28.5M30.5 28.5L40.6667 21.375M30.5 28.5L30.5 4.75" stroke="#7392B7" stroke-width="2"/>
<path d="M40.6667 11.875H49.375C51.2606 11.875 52.2034 11.875 52.7892 12.4608C53.375 13.0466 53.375 13.9894 53.375 15.875V45.875C53.375 47.7606 53.375 48.7034 52.7892 49.2892C52.2034 49.875 51.2606 49.875 49.375 49.875H11.625C9.73938 49.875 8.79657 49.875 8.21079 49.2892C7.625 48.7034 7.625 47.7606 7.625 45.875V15.875C7.625 13.9894 7.625 13.0466 8.21079 12.4608C8.79657 11.875 9.73938 11.875 11.625 11.875H20.3333" stroke="#7392B7" stroke-width="2"/>
</svg>
