<svg width="35" height="34" viewBox="0 0 35 34" fill="none" xmlns="http://www.w3.org/2000/svg">
<path d="M13.1251 14.1668L18.2298 17.886C18.6439 18.1877 19.2189 18.1277 19.5617 17.747L29.1667 7.0835" stroke="#7392B7" stroke-width="2" stroke-linecap="round"/>
<path d="M30.625 17C30.625 19.664 29.766 22.2611 28.1686 24.4266C26.5712 26.592 24.3157 28.217 21.7189 29.0734C19.122 29.9297 16.3143 29.9743 13.69 29.201C11.0657 28.4277 8.75669 26.8752 7.08724 24.7617C5.41778 22.6482 4.47176 20.0798 4.38203 17.4172C4.2923 14.7546 5.06338 12.1315 6.58696 9.91648C8.11055 7.70142 10.3101 6.0056 12.8767 5.0672C15.4433 4.1288 18.2481 3.99494 20.897 4.68445" stroke="#7392B7" stroke-width="2" stroke-linecap="round"/>
</svg>
