<svg width="22" height="20" viewBox="0 0 22 20" fill="none" xmlns="http://www.w3.org/2000/svg">
<g clip-path="url(#clip0_33_2005)">
<path d="M21.0375 10.2216C21.0499 9.53416 20.9755 8.84776 20.8158 8.17725H10.9669V11.8883H16.7481C16.6386 12.539 16.3921 13.1618 16.0236 13.7194C15.655 14.2769 15.172 14.7577 14.6035 15.1327L14.5834 15.257L17.6976 17.5567L17.9132 17.5772C19.8946 15.8328 21.0371 13.266 21.0371 10.2216" fill="#4285F4"/>
<path d="M10.9669 19.9998C13.7992 19.9998 16.1769 19.1109 17.9138 17.5775L14.6035 15.133C13.7178 15.722 12.5289 16.1332 10.9669 16.1332C9.64039 16.1258 8.34997 15.7203 7.27877 14.9744C6.20756 14.2285 5.40995 13.1799 4.99912 11.9775L4.87618 11.9875L1.63803 14.3764L1.5957 14.4886C2.46782 16.1455 3.80622 17.5384 5.46125 18.5117C7.11629 19.485 9.02271 20.0002 10.9673 19.9998" fill="#34A853"/>
<path d="M4.99913 11.9777C4.76968 11.3411 4.65129 10.673 4.64866 9.99996C4.65288 9.32799 4.76691 8.66075 4.98664 8.02225L4.98079 7.88968L1.70294 5.4624L1.59572 5.51101C0.86002 6.90343 0.476807 8.4408 0.476807 9.99987C0.476807 11.5589 0.86002 13.0963 1.59572 14.4887L4.99913 11.9777Z" fill="#FBBC05"/>
<path d="M10.967 3.86687C12.4701 3.84462 13.9239 4.37827 15.0232 5.35583L17.9838 2.60021C16.0849 0.902092 13.5704 -0.0296414 10.967 0.000207357C9.02236 -0.000233694 7.11596 0.514977 5.46093 1.48823C3.80589 2.46148 2.46748 3.85441 1.59534 5.51125L4.98746 8.02249C5.40235 6.8203 6.20259 5.77255 7.27538 5.02699C8.34817 4.28143 9.63938 3.87565 10.967 3.86687Z" fill="#EB4335"/>
</g>
<defs>
<clipPath id="clip0_33_2005">
<rect width="20.5607" height="20" fill="white" transform="translate(0.476685)"/>
</clipPath>
</defs>
</svg>
