<svg width="75" height="65" viewBox="0 0 75 65" fill="none" xmlns="http://www.w3.org/2000/svg">
<path d="M15.625 34.5574C15.625 30.8801 15.625 29.0415 16.4827 27.4253C17.3404 25.8091 18.9511 24.6126 22.1727 22.2194L25.2977 19.898C31.1205 15.5724 34.032 13.4097 37.5 13.4097C40.968 13.4097 43.8795 15.5724 49.7023 19.898L52.8273 22.2194C56.0489 24.6126 57.6596 25.8091 58.5173 27.4253C59.375 29.0415 59.375 30.8801 59.375 34.5574V46.0417C59.375 51.1486 59.375 53.7021 57.5444 55.2886C55.7138 56.8751 52.7676 56.8751 46.875 56.8751H28.125C22.2324 56.8751 19.2862 56.8751 17.4556 55.2886C15.625 53.7021 15.625 51.1486 15.625 46.0417V34.5574Z" stroke="#7392B7" stroke-width="2"/>
<path d="M45.3125 56.875V41.625C45.3125 41.0727 44.8648 40.625 44.3125 40.625H30.6875C30.1352 40.625 29.6875 41.0727 29.6875 41.625V56.875" stroke="#7392B7" stroke-width="2" stroke-linecap="round" stroke-linejoin="round"/>
</svg>
