<svg width="73" height="82" viewBox="0 0 73 82" fill="none" xmlns="http://www.w3.org/2000/svg">
<path d="M49.8597 19.1635L50.7592 18.7266L49.8597 19.1635ZM52.4545 23.4595L52.9851 22.6119L52.4545 23.4595ZM19.7987 23.8552L19.5973 22.8757L19.7987 23.8552ZM22.4828 20.6943L21.5467 20.3425L22.4828 20.6943ZM21.7324 22.5161L20.8864 21.983L21.7324 22.5161ZM36.5 45.4167C36.502 45.4167 36.504 45.4167 36.5057 45.4167C36.5075 45.4167 36.5089 45.4167 36.5103 45.4167V43.4167C36.5082 43.4167 36.5062 43.4167 36.5046 43.4167C36.5028 43.4167 36.5014 43.4167 36.5 43.4167V45.4167ZM36.4897 45.4167C36.4911 45.4167 36.4925 45.4167 36.4943 45.4167C36.496 45.4167 36.498 45.4167 36.5 45.4167V43.4167C36.4986 43.4167 36.4972 43.4167 36.4954 43.4167C36.4938 43.4167 36.4918 43.4167 36.4897 43.4167V45.4167ZM36.4897 43.4167H18.25V45.4167H36.4897V43.4167ZM8.125 34.1667C8.125 40.2674 12.552 45.4167 18.25 45.4167V43.4167C13.8688 43.4167 10.125 39.3878 10.125 34.1667H8.125ZM18.25 22.9167C12.552 22.9167 8.125 28.0659 8.125 34.1667H10.125C10.125 28.9456 13.8688 24.9167 18.25 24.9167V22.9167ZM36.5 9.25C29.7114 9.25 23.974 13.8841 21.5467 20.3425L23.4189 21.0461C25.6047 15.2303 30.6823 11.25 36.5 11.25V9.25ZM50.7592 18.7266C48.04 13.1279 42.7066 9.25 36.5 9.25V11.25C41.823 11.25 46.5209 14.5779 48.9602 19.6003L50.7592 18.7266ZM56.417 24.9167H59.875V22.9167H56.417V24.9167ZM59.875 24.9167C61.5319 24.9167 62.875 26.2598 62.875 27.9167H64.875C64.875 25.1552 62.6364 22.9167 59.875 22.9167V24.9167ZM62.875 27.9167V40.4167H64.875V27.9167H62.875ZM62.875 40.4167C62.875 42.0735 61.5319 43.4167 59.875 43.4167V45.4167C62.6364 45.4167 64.875 43.1781 64.875 40.4167H62.875ZM59.875 43.4167H36.5103V45.4167H59.875V43.4167ZM48.9602 19.6003C49.5748 20.8659 50.059 21.8642 50.4831 22.5994C50.8941 23.3119 51.3344 23.9381 51.9239 24.3071L52.9851 22.6119C52.8443 22.5237 52.6087 22.2815 52.2156 21.6001C51.8356 20.9414 51.3876 20.0203 50.7592 18.7266L48.9602 19.6003ZM56.417 22.9167C55.3208 22.9167 54.5661 22.9157 53.9919 22.8636C53.4254 22.8122 53.1559 22.7188 52.9851 22.6119L51.9239 24.3071C52.4834 24.6574 53.1177 24.7925 53.8112 24.8554C54.497 24.9176 55.3585 24.9167 56.417 24.9167V22.9167ZM18.25 24.9167C19.0245 24.9167 19.5746 24.9222 20.0002 24.8347L19.5973 22.8757C19.4248 22.9111 19.1417 22.9167 18.25 22.9167V24.9167ZM21.5467 20.3425C21.349 20.8687 21.2071 21.2459 21.0945 21.5248C20.9767 21.8166 20.9154 21.937 20.8864 21.983L22.5784 23.0493C22.7122 22.837 22.8303 22.5677 22.949 22.2738C23.0729 21.9669 23.2249 21.5623 23.4189 21.0461L21.5467 20.3425ZM20.0002 24.8347C20.5462 24.7224 21.0428 24.5472 21.4927 24.2357C21.9426 23.9241 22.2812 23.5209 22.5784 23.0493L20.8864 21.983C20.681 22.3089 20.5145 22.4803 20.3541 22.5914C20.1936 22.7025 19.9746 22.7981 19.5973 22.8757L20.0002 24.8347Z" fill="#33363F"/>
<path d="M36.5 64.9166V58.0833" stroke="#33363F" stroke-width="2" stroke-linecap="round"/>
<path d="M51.7083 68.3333V58.0833" stroke="#33363F" stroke-width="2" stroke-linecap="round"/>
<path d="M21.2917 71.7499V58.0833" stroke="#33363F" stroke-width="2" stroke-linecap="round"/>
</svg>
