<svg width="64" height="57" viewBox="0 0 64 57" fill="none" xmlns="http://www.w3.org/2000/svg">
<path d="M38.6667 49.875V36.625C38.6667 36.0727 38.219 35.625 37.6667 35.625H26.3333C25.7811 35.625 25.3333 36.0727 25.3333 36.625V49.875" stroke="#7392B7" stroke-width="2" stroke-linecap="round" stroke-linejoin="round"/>
<path d="M13.3333 26.125V45.875C13.3333 47.7606 13.3333 48.7034 13.9191 49.2892C14.5049 49.875 15.4477 49.875 17.3333 49.875H46.6667C48.5523 49.875 49.4951 49.875 50.0809 49.2892C50.6667 48.7034 50.6667 47.7606 50.6667 45.875V26.125" stroke="#7392B7" stroke-width="2"/>
<path d="M12.9237 8.58449C13.1208 7.88223 13.2193 7.5311 13.4872 7.32805C13.7551 7.125 14.1198 7.125 14.8492 7.125H49.1508C49.8802 7.125 50.2449 7.125 50.5128 7.32805C50.7807 7.5311 50.8792 7.88223 51.0763 8.58449L55.2869 23.5845C55.6141 24.7502 55.7777 25.3331 55.4776 25.729C55.1775 26.125 54.5721 26.125 53.3613 26.125H48.6542C47.0659 26.125 46.2718 26.125 45.7162 25.6638C45.1607 25.2026 45.0146 24.422 44.7225 22.8608L44.1966 20.0505C44.1209 19.6459 44.083 19.4437 44 19.4437C43.917 19.4437 43.8791 19.6459 43.8034 20.0505L43.2775 22.8608C42.9854 24.422 42.8393 25.2026 42.2838 25.6638C41.7282 26.125 40.9341 26.125 39.3458 26.125H36.6542C35.0659 26.125 34.2718 26.125 33.7162 25.6638C33.1607 25.2026 33.0146 24.422 32.7225 22.8608L32.1966 20.0505C32.1209 19.6459 32.083 19.4437 32 19.4437C31.917 19.4437 31.8791 19.6459 31.8034 20.0505L31.2775 22.8608C30.9854 24.422 30.8393 25.2026 30.2838 25.6638C29.7282 26.125 28.9341 26.125 27.3458 26.125H24.6542C23.0659 26.125 22.2718 26.125 21.7162 25.6638C21.1607 25.2026 21.0146 24.422 20.7225 22.8608L20.1966 20.0505C20.1209 19.6459 20.083 19.4437 20 19.4437C19.917 19.4437 19.8791 19.6459 19.8034 20.0505L19.2775 22.8608C18.9854 24.422 18.8393 25.2026 18.2838 25.6638C17.7282 26.125 16.9341 26.125 15.3458 26.125H10.6387C9.42791 26.125 8.82251 26.125 8.5224 25.729C8.22229 25.3331 8.3859 24.7502 8.71313 23.5845L12.9237 8.58449Z" stroke="#7392B7" stroke-width="2"/>
</svg>
